<?xml version="1.0" encoding="UTF-8"?>
<!DOCTYPE svg PUBLIC "-//W3C//DTD SVG 1.1//EN" "http://www.w3.org/Graphics/SVG/1.1/DTD/svg11.dtd">
<!-- Creator: CorelDRAW X8 -->
<svg xmlns="http://www.w3.org/2000/svg" xml:space="preserve" width="2550px" height="3300px" version="1.1" style="shape-rendering:geometricPrecision; text-rendering:geometricPrecision; image-rendering:optimizeQuality; fill-rule:evenodd; clip-rule:evenodd"
viewBox="0 0 255000000 330000000"
 xmlns:xlink="http://www.w3.org/1999/xlink">
 <defs>
  <style type="text/css">
   <![CDATA[
    .fil0 {fill:#C4C4C4}
   ]]>
  </style>
 </defs>
 <g id="Слой_x0020_1">
  <metadata id="CorelCorpID_0Corel-Layer"/>
  <path id="Fon" class="fil0" d="M-181875000 90878150c4982244,0 4941260,-3220394 9667795,-3220394 4604055,0 4707166,3220394 9668150,3220394l0 3222637 0 -3222637c4982126,0 4941260,-3220394 9667795,-3220394 4604055,0 4706929,3222638 9668150,3222638l0 3220393 0 -3222637c4981890,0 4941260,-3220394 9667795,-3220394 4604055,0 4706929,3222638 9668150,3222638l0 3220393 0 -3222637c4981889,0 4941259,-3220394 9667795,-3220394 4605590,0 4706811,3220394 9668150,3220394l0 3222637 0 -3222637c4981889,0 4941259,-3220394 9667795,-3220394 4604055,0 4706929,3222638 9668149,3222638l0 3220393 0 -3222637c4981890,0 4941260,-3220394 9667796,-3220394 4604055,0 4706929,3222638 9668149,3222638l0 3220393 0 -3222637c4981772,0 4941260,-3220394 9667796,-3220394 4604055,0 4706929,3222638 9668149,3222638l0 3220393 0 -3222637c4981772,0 4941142,-3220394 9667795,-3220394 4605591,0 4706811,3220394 9668032,3220394l0 3222637 0 -3222637c4981890,0 4941260,-3220394 9667913,-3220394 4604055,0 4707166,3220394 9668032,3220394l0 3222637 0 -3222637c4981890,0 4941260,-3220394 9667913,-3220394 4604055,0 4706929,3222638 9668150,3222638l-118 3220393 0 -3222637c4981889,0 4941260,-3220394 9667913,-3220394 4604055,0 4706929,3222638 9668150,3222638l-118 3220393 0 -3222637c4981889,0 4941259,-3220394 9667795,-3220394 4605709,0 4706929,3220394 9668149,3220394l0 3222637 0 -3222637c4981890,0 4941260,-3220394 9667796,-3220394 4604055,0 4706929,3222638 9668149,3222638l0 3220393 0 -3222637c4981890,0 4941260,-3220394 9667796,-3220394 4604055,0 4706929,3222638 9668149,3222638l0 3220393 0 -3222637c4981890,0 4941260,-3220394 9667796,-3220394 4604055,0 4706929,3222638 9668149,3222638l0 3220393 0 -3222637c4981890,0 4941260,-3220394 9667795,-3220394 4605591,0 4706930,3220394 9668150,3220394l0 3222637 -19335945 0 -19335945 0 -19335945 0 -19335945 0 -19335944 0 -19335945 0 -19335945 0 -19335945 0 -19335827 0 -19335945 0 -19335945 0 -19335944 0 -19335945 0 -19335945 0 -19335945 0 -19335945 0 0 -3222637zm309375000 0c4981299,0 4940669,-3222520 9668740,-3222520 4603110,0 4706221,3222520 9665669,3222520l0 3222637 0 -3222637c4984371,0 4943741,-3222520 9668741,-3222520 4606299,0 4706220,3222520 9668740,3222520l0 3222637 0 -3222637c4981299,0 4940669,-3222520 9668740,-3222520 4603110,0 4706220,3222520 9665669,3222520l0 3222637 0 -3222637c4984370,0 4943740,-3222520 9668740,-3222520 4606300,0 4706221,3222520 9668741,3222520l0 3222637 0 -3222637c4981299,0 4940669,-3222520 9668740,-3222520 4603110,0 4706220,3222520 9665669,3222520l-118 3222637 0 -3222637c4984370,0 4943740,-3222520 9668740,-3222520 4606299,0 4706220,3222520 9668740,3222520l118 3222637 0 -3222637c4981300,0 4940670,-3222520 9668740,-3222520 4603111,0 4706221,3222520 9665670,3222520l-118 3222637 0 -3222637c4984370,0 4943740,-3222520 9668740,-3222520 4606299,0 4706220,3222520 9668740,3222520l118 3222637 0 -3222637c4981299,0 4940669,-3222520 9668740,-3222520 4603110,0 4706221,3222520 9665670,3222520l-119 3222637 0 -3222637c4984370,0 4943741,-3222520 9668741,-3222520 4606299,0 4706220,3222520 9668740,3222520l0 3222637 0 -3222637c4981299,0 4940669,-3222520 9668740,-3222520 4603110,0 4706220,3222520 9665669,3222520l0 3222637 0 -3222637c4984370,0 4943740,-3222520 9668740,-3222520 4606300,0 4706221,3222520 9668740,3222520l0 3222637 0 -3222637c4981300,0 4940670,-3222520 9668741,-3222520 4603110,0 4706220,3222520 9665669,3222520l0 3222637 0 -3222637c4984370,0 4943740,-3222520 9668740,-3222520 4606299,0 4706221,3222520 9668740,3222520l0 3222637 0 -3222637c4981299,0 4940670,-3222520 9668740,-3222520 4603111,0 4706221,3222520 9665670,3222520l0 3222637 0 -3222637c4984370,0 4943740,-3222520 9668740,-3222520 4606299,0 4706220,3222520 9668740,3222520l0 3222637 -19337480 0 -19334410 0 -19337480 0 -19334410 0 -19337480 0 -19334409 0 -19337481 0 -19334291 0 -19337598 0 -19334292 0 -19337598 0 -19334291 0 -19337481 0 -19334409 0 -19337481 0 -19334409 0 0 -3222637z"/>
 </g>
</svg>
