<?xml version="1.0" encoding="UTF-8"?>
<!DOCTYPE svg PUBLIC "-//W3C//DTD SVG 1.1//EN" "http://www.w3.org/Graphics/SVG/1.1/DTD/svg11.dtd">
<!-- Creator: CorelDRAW X8 -->
<svg xmlns="http://www.w3.org/2000/svg" xml:space="preserve" width="39px" height="50px" version="1.1" style="shape-rendering:geometricPrecision; text-rendering:geometricPrecision; image-rendering:optimizeQuality; fill-rule:evenodd; clip-rule:evenodd"
viewBox="0 0 3900000 5047059"
 xmlns:xlink="http://www.w3.org/1999/xlink">
 <defs>
  <style type="text/css">
   <![CDATA[
    .fil0 {fill:#C4C4C4}
   ]]>
  </style>
 </defs>
 <g id="Слой_x0020_1">
  <metadata id="CorelCorpID_0Corel-Layer"/>
  <path id="Fon" class="fil0" d="M-2781618 1389901c76199,0 75573,-49253 147861,-49253 70415,0 71992,49253 147866,49253l0 49288 0 -49288c76197,0 75572,-49253 147860,-49253 70415,0 71988,49287 147866,49287l0 49254 0 -49288c76193,0 75572,-49253 147860,-49253 70415,0 71989,49287 147866,49287l0 49254 0 -49288c76194,0 75572,-49253 147860,-49253 70439,0 71987,49253 147866,49253l0 49288 0 -49288c76194,0 75572,-49253 147861,-49253 70415,0 71988,49287 147865,49287l0 49254 0 -49288c76194,0 75573,-49253 147861,-49253 70415,0 71988,49287 147866,49287l0 49254 0 -49288c76191,0 75572,-49253 147860,-49253 70415,0 71988,49287 147866,49287l0 49254 0 -49288c76192,0 75570,-49253 147860,-49253 70439,0 71987,49253 147864,49253l0 49288 0 -49288c76194,0 75572,-49253 147862,-49253 70415,0 71992,49253 147864,49253l0 49288 0 -49288c76194,0 75573,-49253 147863,-49253 70415,0 71988,49287 147866,49287l-2 49254 0 -49288c76193,0 75572,-49253 147862,-49253 70415,0 71988,49287 147866,49287l-2 49254 0 -49288c76194,0 75572,-49253 147860,-49253 70441,0 71989,49253 147866,49253l0 49288 0 -49288c76194,0 75572,-49253 147861,-49253 70414,0 71988,49287 147865,49287l0 49254 0 -49288c76194,0 75573,-49253 147861,-49253 70415,0 71988,49287 147866,49287l0 49254 0 -49288c76193,0 75572,-49253 147860,-49253 70415,0 71988,49287 147866,49287l0 49254 0 -49288c76193,0 75572,-49253 147860,-49253 70439,0 71989,49253 147866,49253l0 49288 -295726 0 -295726 0 -295727 0 -295726 0 -295726 0 -295726 0 -295727 0 -295726 0 -295724 0 -295726 0 -295727 0 -295726 0 -295726 0 -295726 0 -295726 0 -295727 0 0 -49288zm4731618 0c76185,0 75563,-49285 147875,-49285 70400,0 71977,49285 147828,49285l0 49288 0 -49288c76231,0 75610,-49285 147875,-49285 70449,0 71977,49285 147874,49285l0 49288 0 -49288c76185,0 75564,-49285 147875,-49285 70401,0 71978,49285 147828,49285l0 49288 0 -49288c76232,0 75610,-49285 147875,-49285 70449,0 71978,49285 147875,49285l0 49288 0 -49288c76184,0 75563,-49285 147875,-49285 70400,0 71977,49285 147828,49285l-2 49288 0 -49288c76231,0 75610,-49285 147875,-49285 70449,0 71977,49285 147874,49285l2 49288 0 -49288c76185,0 75563,-49285 147875,-49285 70401,0 71978,49285 147828,49285l-2 49288 0 -49288c76232,0 75610,-49285 147875,-49285 70449,0 71978,49285 147875,49285l2 49288 0 -49288c76184,0 75563,-49285 147875,-49285 70400,0 71977,49285 147827,49285l-1 49288 0 -49288c76231,0 75610,-49285 147875,-49285 70449,0 71977,49285 147874,49285l0 49288 0 -49288c76185,0 75564,-49285 147875,-49285 70401,0 71978,49285 147828,49285l0 49288 0 -49288c76232,0 75610,-49285 147875,-49285 70449,0 71977,49285 147875,49285l0 49288 0 -49288c76184,0 75563,-49285 147875,-49285 70400,0 71977,49285 147828,49285l0 49288 0 -49288c76231,0 75610,-49285 147874,-49285 70450,0 71978,49285 147875,49285l0 49288 0 -49288c76185,0 75563,-49285 147875,-49285 70401,0 71978,49285 147828,49285l0 49288 0 -49288c76231,0 75610,-49285 147875,-49285 70449,0 71977,49285 147875,49285l0 49288 -295750 0 -295703 0 -295749 0 -295703 0 -295750 0 -295703 0 -295749 0 -295701 0 -295752 0 -295701 0 -295751 0 -295701 0 -295750 0 -295703 0 -295749 0 -295703 0 0 -49288z"/>
 </g>
</svg>
