<svg xmlns="http://www.w3.org/2000/svg" xmlns:xlink="http://www.w3.org/1999/xlink" width="1980" height="20.625" viewBox="0 0 1980 20.625">
  <metadata><?xpacket begin="﻿" id="W5M0MpCehiHzreSzNTczkc9d"?>
<x:xmpmeta xmlns:x="adobe:ns:meta/" x:xmptk="Adobe XMP Core 5.6-c138 79.159824, 2016/09/14-01:09:01        ">
   <rdf:RDF xmlns:rdf="http://www.w3.org/1999/02/22-rdf-syntax-ns#">
      <rdf:Description rdf:about=""/>
   </rdf:RDF>
</x:xmpmeta>
                                                                                                    
                                                                                                    
                                                                                                    
                                                                                                    
                                                                                                    
                                                                                                    
                                                                                                    
                                                                                                    
                                                                                                    
                                                                                                    
                                                                                                    
                                                                                                    
                                                                                                    
                                                                                                    
                                                                                                    
                                                                                                    
                                                                                                    
                                                                                                    
                                                                                                    
                                                                                                    
                           
<?xpacket end="w"?></metadata>
<defs>
    <style>
      .cls-1 {
        fill: #c4c4c4;
        fill-rule: evenodd;
        opacity: 0.99;
        filter: url(#filter);
      }
    </style>
    <filter id="filter" x="0" y="1" width="1980" height="20.625" filterUnits="userSpaceOnUse">
      <feFlood result="flood" flood-color="#fff"/>
      <feComposite result="composite" operator="in" in2="SourceGraphic"/>
      <feBlend result="blend" in2="SourceGraphic"/>
      <feGaussianBlur result="blur" stdDeviation="2.646" in="SourceAlpha"/>
      <feFlood result="flood-2" flood-opacity="0.2"/>
      <feComposite result="composite-2" operator="out" in2="blur"/>
      <feOffset result="offset" dy="3"/>
      <feComposite result="composite-3" operator="in" in2="SourceAlpha"/>
      <feBlend result="blend-2" mode="multiply" in2="blend"/>
    </filter>
  </defs>
  <path id="Fon" class="cls-1" d="M0,11.311C15.943,11.311,15.812,1,30.937,1,45.67,1,46,11.311,61.875,11.311V21.624H0V11.311Zm61.875,0C77.818,11.311,77.687,1,92.812,1c14.733,0,15.062,10.313,30.938,10.313V21.624H61.875V11.311Zm61.875,0C139.692,11.311,139.562,1,154.687,1c14.733,0,15.062,10.313,30.938,10.313V21.624H123.75V11.311Zm61.875,0C201.567,11.311,201.437,1,216.562,1,231.3,1,231.624,11.311,247.5,11.311V21.624H185.625V11.311Zm61.875,0C263.442,11.311,263.312,1,278.437,1,293.17,1,293.5,11.311,309.375,11.311V21.624H247.5V11.311Zm61.875,0C325.317,11.311,325.187,1,340.312,1c14.733,0,15.062,10.313,30.938,10.313V21.624H309.375V11.311Zm61.875,0C387.192,11.311,387.062,1,402.187,1c14.733,0,15.062,10.313,30.938,10.313V21.624H371.25V11.311Zm61.875,0C449.067,11.311,448.937,1,464.062,1,478.8,1,479.124,11.311,495,11.311V21.624H433.125V11.311Zm61.875,0C510.942,11.311,510.812,1,525.937,1,540.67,1,541,11.311,556.875,11.311V21.624H495V11.311Zm61.875,0C572.817,11.311,572.687,1,587.812,1c14.733,0,15.062,10.313,30.938,10.313V21.624H556.875V11.311Zm61.875,0C634.692,11.311,634.562,1,649.687,1c14.733,0,15.062,10.313,30.938,10.313V21.624H618.75V11.311Zm61.875,0C696.567,11.311,696.437,1,711.562,1,726.3,1,726.624,11.311,742.5,11.311V21.624H680.625V11.311Zm61.875,0C758.442,11.311,758.312,1,773.437,1,788.17,1,788.5,11.311,804.375,11.311V21.624H742.5V11.311Zm61.875,0C820.317,11.311,820.187,1,835.312,1c14.733,0,15.062,10.313,30.938,10.313V21.624H804.375V11.311Zm61.875,0C882.192,11.311,882.062,1,897.187,1c14.733,0,15.062,10.313,30.938,10.313V21.624H866.25V11.311Zm61.875,0C944.067,11.311,943.937,1,959.062,1,973.8,1,974.124,11.311,990,11.311V21.624H928.125V11.311ZM0,21.624H0ZM990,11.311c15.94,0,15.81-10.313,30.94-10.313,14.73,0,15.06,10.313,30.93,10.313V21.624H990V11.311Zm61.87,0c15.95,0,15.82-10.313,30.94-10.313,14.74,0,15.06,10.313,30.94,10.313V21.624h-61.88V11.311Zm61.88,0c15.94,0,15.81-10.313,30.94-10.313,14.73,0,15.06,10.313,30.93,10.313V21.624h-61.87V11.311Zm61.87,0c15.95,0,15.82-10.313,30.94-10.313,14.74,0,15.06,10.313,30.94,10.313V21.624h-61.88V11.311Zm61.88,0c15.94,0,15.81-10.313,30.94-10.313,14.73,0,15.06,10.313,30.93,10.313V21.624H1237.5V11.311Zm61.87,0c15.95,0,15.82-10.313,30.94-10.313,14.74,0,15.06,10.313,30.94,10.313V21.624h-61.88V11.311Zm61.88,0c15.94,0,15.81-10.313,30.94-10.313,14.73,0,15.06,10.313,30.93,10.313V21.624h-61.87V11.311Zm61.87,0c15.95,0,15.82-10.313,30.94-10.313,14.74,0,15.06,10.313,30.94,10.313V21.624h-61.88V11.311Zm61.88,0c15.94,0,15.81-10.313,30.94-10.313,14.73,0,15.06,10.313,30.93,10.313V21.624H1485V11.311Zm61.87,0c15.95,0,15.82-10.313,30.94-10.313,14.74,0,15.06,10.313,30.94,10.313V21.624h-61.88V11.311Zm61.88,0c15.94,0,15.81-10.313,30.94-10.313,14.73,0,15.06,10.313,30.93,10.313V21.624h-61.87V11.311Zm61.87,0c15.95,0,15.82-10.313,30.94-10.313,14.74,0,15.06,10.313,30.94,10.313V21.624h-61.88V11.311Zm61.88,0c15.94,0,15.81-10.313,30.94-10.313,14.73,0,15.06,10.313,30.93,10.313V21.624H1732.5V11.311Zm61.87,0c15.95,0,15.82-10.313,30.94-10.313,14.74,0,15.06,10.313,30.94,10.313V21.624h-61.88V11.311Zm61.88,0c15.94,0,15.81-10.313,30.94-10.313,14.73,0,15.06,10.313,30.93,10.313V21.624h-61.87V11.311Zm61.87,0c15.95,0,15.82-10.313,30.94-10.313,14.74,0,15.06,10.313,30.94,10.313V21.624h-61.88V11.311ZM990,21.624h0Z" transform="translate(0 -1)"/>
</svg>
