<svg xmlns="http://www.w3.org/2000/svg" xmlns:xlink="http://www.w3.org/1999/xlink" width="1980" height="495" viewBox="0 0 1980 495">
  <metadata><?xpacket begin="﻿" id="W5M0MpCehiHzreSzNTczkc9d"?>
<x:xmpmeta xmlns:x="adobe:ns:meta/" x:xmptk="Adobe XMP Core 5.6-c138 79.159824, 2016/09/14-01:09:01        ">
   <rdf:RDF xmlns:rdf="http://www.w3.org/1999/02/22-rdf-syntax-ns#">
      <rdf:Description rdf:about=""/>
   </rdf:RDF>
</x:xmpmeta>
                                                                                                    
                                                                                                    
                                                                                                    
                                                                                                    
                                                                                                    
                                                                                                    
                                                                                                    
                                                                                                    
                                                                                                    
                                                                                                    
                                                                                                    
                                                                                                    
                                                                                                    
                                                                                                    
                                                                                                    
                                                                                                    
                                                                                                    
                                                                                                    
                                                                                                    
                                                                                                    
                           
<?xpacket end="w"?></metadata>
<defs>
    <style>
      .cls-1 {
        fill: #c4c4c4;
        fill-rule: evenodd;
        filter: url(#filter);
      }
    </style>
    <filter id="filter" x="0" y="12" width="1980" height="495" filterUnits="userSpaceOnUse">
      <feFlood result="flood" flood-color="#fff"/>
      <feComposite result="composite" operator="in" in2="SourceGraphic"/>
      <feBlend result="blend" in2="SourceGraphic"/>
    </filter>
  </defs>
  <path id="Fon" class="cls-1" d="M0,22.311C15.943,22.311,15.812,12,30.937,12,45.67,12,46,22.311,61.875,22.311V32.624H0V22.311Zm61.875,0C77.818,22.311,77.687,12,92.812,12c14.733,0,15.062,10.313,30.938,10.313V32.624H61.875V22.311Zm61.875,0C139.692,22.311,139.562,12,154.687,12c14.733,0,15.062,10.313,30.938,10.313V32.624H123.75V22.311Zm61.875,0C201.567,22.311,201.437,12,216.562,12,231.3,12,231.624,22.311,247.5,22.311V32.624H185.625V22.311Zm61.875,0C263.442,22.311,263.312,12,278.437,12c14.733,0,15.062,10.313,30.938,10.313V32.624H247.5V22.311Zm61.875,0C325.317,22.311,325.187,12,340.312,12c14.733,0,15.062,10.313,30.938,10.313V32.624H309.375V22.311Zm61.875,0C387.192,22.311,387.062,12,402.187,12c14.733,0,15.062,10.313,30.938,10.313V32.624H371.25V22.311Zm61.875,0C449.067,22.311,448.937,12,464.062,12,478.8,12,479.124,22.311,495,22.311V32.624H433.125V22.311Zm61.875,0C510.942,22.311,510.812,12,525.937,12,540.67,12,541,22.311,556.875,22.311V32.624H495V22.311Zm61.875,0C572.817,22.311,572.687,12,587.812,12c14.733,0,15.062,10.313,30.938,10.313V32.624H556.875V22.311Zm61.875,0C634.692,22.311,634.562,12,649.687,12c14.733,0,15.062,10.313,30.938,10.313V32.624H618.75V22.311Zm61.875,0C696.567,22.311,696.437,12,711.562,12,726.3,12,726.624,22.311,742.5,22.311V32.624H680.625V22.311Zm61.875,0C758.442,22.311,758.312,12,773.437,12c14.733,0,15.062,10.313,30.938,10.313V32.624H742.5V22.311Zm61.875,0C820.317,22.311,820.187,12,835.312,12c14.733,0,15.062,10.313,30.938,10.313V32.624H804.375V22.311Zm61.875,0C882.192,22.311,882.062,12,897.187,12c14.733,0,15.062,10.313,30.938,10.313V32.624H866.25V22.311Zm61.875,0C944.067,22.311,943.937,12,959.062,12,973.8,12,974.124,22.311,990,22.311V32.624H928.125V22.311ZM0,32.624H990V507H0V32.624ZM990,22.311c15.94,0,15.81-10.313,30.94-10.313,14.73,0,15.06,10.313,30.93,10.313V32.624H990V22.311Zm61.87,0c15.95,0,15.82-10.313,30.94-10.313,14.74,0,15.06,10.313,30.94,10.313V32.624h-61.88V22.311Zm61.88,0c15.94,0,15.81-10.313,30.94-10.313,14.73,0,15.06,10.313,30.93,10.313V32.624h-61.87V22.311Zm61.87,0c15.95,0,15.82-10.313,30.94-10.313,14.74,0,15.06,10.313,30.94,10.313V32.624h-61.88V22.311Zm61.88,0c15.94,0,15.81-10.313,30.94-10.313,14.73,0,15.06,10.313,30.93,10.313V32.624H1237.5V22.311Zm61.87,0c15.95,0,15.82-10.313,30.94-10.313,14.74,0,15.06,10.313,30.94,10.313V32.624h-61.88V22.311Zm61.88,0c15.94,0,15.81-10.313,30.94-10.313,14.73,0,15.06,10.313,30.93,10.313V32.624h-61.87V22.311Zm61.87,0c15.95,0,15.82-10.313,30.94-10.313,14.74,0,15.06,10.313,30.94,10.313V32.624h-61.88V22.311Zm61.88,0c15.94,0,15.81-10.313,30.94-10.313,14.73,0,15.06,10.313,30.93,10.313V32.624H1485V22.311Zm61.87,0c15.95,0,15.82-10.313,30.94-10.313,14.74,0,15.06,10.313,30.94,10.313V32.624h-61.88V22.311Zm61.88,0c15.94,0,15.81-10.313,30.94-10.313,14.73,0,15.06,10.313,30.93,10.313V32.624h-61.87V22.311Zm61.87,0c15.95,0,15.82-10.313,30.94-10.313,14.74,0,15.06,10.313,30.94,10.313V32.624h-61.88V22.311Zm61.88,0c15.94,0,15.81-10.313,30.94-10.313,14.73,0,15.06,10.313,30.93,10.313V32.624H1732.5V22.311Zm61.87,0c15.95,0,15.82-10.313,30.94-10.313,14.74,0,15.06,10.313,30.94,10.313V32.624h-61.88V22.311Zm61.88,0c15.94,0,15.81-10.313,30.94-10.313,14.73,0,15.06,10.313,30.93,10.313V32.624h-61.87V22.311Zm61.87,0c15.95,0,15.82-10.313,30.94-10.313,14.74,0,15.06,10.313,30.94,10.313V32.624h-61.88V22.311ZM990,32.624h990V507H990V32.624Z" transform="translate(0 -12)"/>
</svg>
